<svg width="22" height="22" viewBox="0 0 22 22" fill="none" xmlns="http://www.w3.org/2000/svg">
<path d="M15.34 8.32205C15.4361 8.23249 15.5136 8.12488 15.568 8.00538C15.6225 7.88587 15.6529 7.75681 15.6575 7.62555C15.6621 7.4943 15.6408 7.36342 15.5948 7.2404C15.5488 7.11737 15.4791 7.00461 15.3895 6.90855C15.2999 6.81249 15.1923 6.73501 15.0728 6.68053C14.9533 6.62605 14.8243 6.59565 14.693 6.59105C14.5618 6.58646 14.4309 6.60776 14.3079 6.65374C14.1848 6.69972 14.0721 6.76949 13.976 6.85905L11.05 9.58705L8.32201 6.66005C8.13948 6.47309 7.89102 6.36501 7.6298 6.35891C7.36859 6.35282 7.11536 6.44921 6.92431 6.62745C6.73327 6.8057 6.61957 7.05164 6.60755 7.31265C6.59553 7.57366 6.68615 7.829 6.86001 8.02405L9.58801 10.95L6.66101 13.6781C6.56155 13.7667 6.48082 13.8743 6.42354 13.9946C6.36626 14.1149 6.3336 14.2454 6.32747 14.3785C6.32135 14.5116 6.34188 14.6446 6.38786 14.7696C6.43384 14.8947 6.50434 15.0093 6.59523 15.1067C6.68612 15.2041 6.79555 15.2824 6.91711 15.3369C7.03867 15.3915 7.16991 15.4212 7.3031 15.4243C7.4363 15.4274 7.56877 15.4038 7.69274 15.355C7.81671 15.3062 7.92968 15.2331 8.02501 15.14L10.951 12.413L13.679 15.3391C13.7671 15.4403 13.8747 15.5229 13.9953 15.5817C14.116 15.6405 14.2472 15.6745 14.3813 15.6815C14.5153 15.6885 14.6494 15.6685 14.7756 15.6226C14.9017 15.5767 15.0173 15.5058 15.1155 15.4143C15.2137 15.3228 15.2924 15.2124 15.3471 15.0898C15.4017 14.9672 15.4311 14.8348 15.4334 14.7006C15.4358 14.5664 15.4112 14.4331 15.3609 14.3086C15.3107 14.1841 15.2359 14.071 15.141 13.976L12.414 11.05L15.34 8.32205Z" fill="#D9D2C8"/>
<path fill-rule="evenodd" clip-rule="evenodd" d="M0 11C0 4.925 4.925 0 11 0C17.075 0 22 4.925 22 11C22 17.075 17.075 22 11 22C4.925 22 0 17.075 0 11ZM11 20C9.8181 20 8.64778 19.7672 7.55585 19.3149C6.46392 18.8626 5.47177 18.1997 4.63604 17.364C3.80031 16.5282 3.13738 15.5361 2.68508 14.4442C2.23279 13.3522 2 12.1819 2 11C2 9.8181 2.23279 8.64778 2.68508 7.55585C3.13738 6.46392 3.80031 5.47177 4.63604 4.63604C5.47177 3.80031 6.46392 3.13738 7.55585 2.68508C8.64778 2.23279 9.8181 2 11 2C13.3869 2 15.6761 2.94821 17.364 4.63604C19.0518 6.32387 20 8.61305 20 11C20 13.3869 19.0518 15.6761 17.364 17.364C15.6761 19.0518 13.3869 20 11 20Z" fill="#D9D2C8"/>
</svg>
