<svg width="18" height="18" viewBox="0 0 18 18" fill="none" xmlns="http://www.w3.org/2000/svg">
<path d="M14 15H3V4H9.61L10.61 3H3C2.73478 3 2.48043 3.10536 2.29289 3.29289C2.10536 3.48043 2 3.73478 2 4V15C2 15.2652 2.10536 15.5196 2.29289 15.7071C2.48043 15.8946 2.73478 16 3 16H14C14.2652 16 14.5196 15.8946 14.7071 15.7071C14.8946 15.5196 15 15.2652 15 15V7.5L14 8.5V15Z" fill="#DD9F00"/>
<path d="M16.765 2.91997L15.08 1.23497C15.0052 1.15999 14.9164 1.10049 14.8185 1.0599C14.7207 1.01931 14.6159 0.998413 14.51 0.998413C14.4041 0.998413 14.2992 1.01931 14.2014 1.0599C14.1036 1.10049 14.0148 1.15999 13.94 1.23497L7.08498 8.12997L6.52998 10.535C6.50633 10.6516 6.50882 10.7719 6.53726 10.8874C6.56569 11.0029 6.61938 11.1107 6.69444 11.203C6.76951 11.2953 6.86409 11.3697 6.97139 11.4211C7.07868 11.4725 7.19603 11.4994 7.31498 11.5C7.37646 11.5067 7.4385 11.5067 7.49998 11.5L9.92498 10.965L16.765 4.05997C16.84 3.98519 16.8995 3.89635 16.9401 3.79854C16.9806 3.70073 17.0015 3.59587 17.0015 3.48997C17.0015 3.38407 16.9806 3.27921 16.9401 3.1814C16.8995 3.08359 16.84 2.99475 16.765 2.91997ZM9.40498 10.04L7.57498 10.445L7.99998 8.62997L13.16 3.43497L14.57 4.84497L9.40498 10.04ZM15.135 4.27997L13.725 2.86997L14.5 2.07997L15.92 3.49997L15.135 4.27997Z" fill="#DD9F00"/>
</svg>
