<svg width="12" height="14" viewBox="0 0 12 14" fill="none" xmlns="http://www.w3.org/2000/svg">
<path d="M8.66667 10.3333V8.33331H4V5.66665H8.66667V3.66665L12 6.99998L8.66667 10.3333ZM7.33333 0.333313C7.68696 0.333313 8.02609 0.473789 8.27614 0.723837C8.52619 0.973886 8.66667 1.31302 8.66667 1.66665V2.99998H7.33333V1.66665H1.33333V12.3333H7.33333V11H8.66667V12.3333C8.66667 12.6869 8.52619 13.0261 8.27614 13.2761C8.02609 13.5262 7.68696 13.6666 7.33333 13.6666H1.33333C0.979711 13.6666 0.640573 13.5262 0.390524 13.2761C0.140476 13.0261 0 12.6869 0 12.3333V1.66665C0 1.31302 0.140476 0.973886 0.390524 0.723837C0.640573 0.473789 0.979711 0.333313 1.33333 0.333313H7.33333Z" fill="#836F5E"/>
</svg>
