<svg width="9" height="18" viewBox="0 0 9 18" fill="none" xmlns="http://www.w3.org/2000/svg">
<path d="M1.66677 17.1667C1.39417 17.1672 1.13 17.0723 0.9201 16.8983C0.801965 16.8004 0.704313 16.6801 0.632736 16.5444C0.561158 16.4086 0.517063 16.2601 0.502974 16.1073C0.488886 15.9545 0.505081 15.8004 0.550633 15.6539C0.596185 15.5073 0.670197 15.3712 0.768433 15.2533L5.9951 8.99999L0.955101 2.735C0.85819 2.61566 0.78582 2.47835 0.74215 2.33095C0.698479 2.18356 0.68437 2.02898 0.700632 1.87612C0.716895 1.72325 0.763208 1.5751 0.83691 1.4402C0.910613 1.30529 1.01025 1.18627 1.1301 1.09C1.25081 0.983787 1.39217 0.903675 1.54531 0.854687C1.69845 0.8057 1.86006 0.788896 2.02 0.805328C2.17995 0.821761 2.33476 0.871075 2.47474 0.950178C2.61472 1.02928 2.73684 1.13646 2.83343 1.265L8.46843 8.26499C8.64003 8.47375 8.73384 8.7356 8.73384 9.00583C8.73384 9.27606 8.64003 9.53791 8.46843 9.74666L2.6351 16.7467C2.51806 16.8878 2.36939 16.9995 2.20115 17.0724C2.0329 17.1454 1.84982 17.1777 1.66677 17.1667Z" fill="#836F5E"/>
</svg>
