<svg width="9" height="18" viewBox="0 0 9 18" fill="none" xmlns="http://www.w3.org/2000/svg">
<path d="M7.33323 0.833339C7.60583 0.832805 7.87 0.927743 8.0799 1.10167C8.19804 1.19961 8.29569 1.3199 8.36727 1.45564C8.43884 1.59137 8.48294 1.7399 8.49703 1.8927C8.51112 2.04551 8.49492 2.19959 8.44937 2.34613C8.40382 2.49267 8.3298 2.62878 8.23157 2.74667L3.0049 9L8.0449 15.265C8.14181 15.3843 8.21418 15.5216 8.25785 15.669C8.30152 15.8164 8.31563 15.971 8.29937 16.1239C8.28311 16.2767 8.23679 16.4249 8.16309 16.5598C8.08939 16.6947 7.98975 16.8137 7.8699 16.91C7.74919 17.0162 7.60783 17.0963 7.45469 17.1453C7.30155 17.1943 7.13994 17.2111 6.98 17.1947C6.82005 17.1782 6.66524 17.1289 6.52526 17.0498C6.38528 16.9707 6.26316 16.8635 6.16657 16.735L0.531567 9.735C0.359972 9.52625 0.266165 9.2644 0.266165 8.99417C0.266166 8.72394 0.359972 8.46209 0.531567 8.25334L6.3649 1.25334C6.48194 1.11215 6.63061 1.00054 6.79886 0.92757C6.9671 0.854596 7.15018 0.822313 7.33323 0.833339Z" fill="#836F5E"/>
</svg>
